<svg xmlns="http://www.w3.org/2000/svg" viewBox="0 0 51.04 64.05"><title>Asset 1icons</title><g id="Layer_2" data-name="Layer 2"><g id="Layer_1-2" data-name="Layer 1"><polygon points="10.13 41.95 19.52 47.37 10.13 52.79 10.13 41.95"/><path d="M35.19,35.54A12.2,12.2,0,0,0,23,23.34H13.36a12.2,12.2,0,0,0-12.2,12.2V47.37H11" style="fill:none;stroke:#000;stroke-miterlimit:10;stroke-width:2.31982px"/><circle cx="18.17" cy="9.21" r="8.05" transform="translate(-1.11 15.77) rotate(-45.66)" style="fill:none;stroke:#000;stroke-miterlimit:10;stroke-width:2.31982px"/><circle cx="36.3" cy="49.31" r="13.58" transform="translate(-19.9 73.6) rotate(-77.02)" style="fill:none;stroke:#000;stroke-miterlimit:10;stroke-width:2.31982px"/><polygon points="36.3 41.35 38.6 46.01 43.74 46.75 40.02 50.38 40.9 55.5 36.3 53.08 31.7 55.5 32.58 50.38 28.86 46.75 34 46.01 36.3 41.35" style="fill:#fff;stroke:#000;stroke-miterlimit:10;stroke-width:2.31982px"/><path d="M41.9,38.67a3.57,3.57,0,1,1,3.57,3.56A3.57,3.57,0,0,1,41.9,38.67Z" style="fill:#fff;stroke:#030202;stroke-miterlimit:10;stroke-width:2.31982px"/></g></g></svg>