<svg xmlns="http://www.w3.org/2000/svg" viewBox="0 0 61.4 77.49"><title>Asset 2icons</title><g id="Layer_2" data-name="Layer 2"><g id="Layer_1-2" data-name="Layer 1"><polygon points="52.02 66.64 61.4 72.06 52.02 77.49 52.02 66.64"/><polygon points="9.39 66.64 0 72.06 9.39 77.49 9.39 66.64" style="fill:#030202"/><polygon points="30.52 2.62 35.54 12.78 46.75 14.41 38.63 22.32 40.55 33.48 30.52 28.21 20.5 33.48 22.41 22.32 14.3 14.41 25.51 12.78 30.52 2.62" style="fill:none;stroke:#000;stroke-miterlimit:10;stroke-width:2.31982px"/><rect x="16.19" y="34.28" width="28.67" height="37.79" style="fill:none;stroke:#000;stroke-miterlimit:10;stroke-width:2.31982px"/><line x1="5.81" y1="72.07" x2="54.36" y2="72.07" style="fill:none;stroke:#030202;stroke-miterlimit:10;stroke-width:2.31982px"/><path d="M41.29,50.63a3.57,3.57,0,1,1,3.57,3.57A3.57,3.57,0,0,1,41.29,50.63Z" style="fill:#fff;stroke:#000;stroke-miterlimit:10;stroke-width:2.31982px"/></g></g></svg>