<svg xmlns="http://www.w3.org/2000/svg" viewBox="0 0 57.96 73.91"><title>Asset 4icons</title><g id="Layer_2" data-name="Layer 2"><g id="Layer_1-2" data-name="Layer 1"><polygon points="23.56 9.39 28.98 0 34.4 9.39 23.56 9.39" style="fill:#070404"/><line x1="47.8" y1="17.35" x2="10.15" y2="17.35" style="fill:none;stroke:#000;stroke-miterlimit:10;stroke-width:2.31982px"/><polygon points="10.15 20.93 1.5 54.6 18.81 54.6 10.15 20.93" style="fill:none;stroke:#000;stroke-linecap:square;stroke-miterlimit:10;stroke-width:2.31982px"/><polygon points="47.8 20.93 39.15 54.6 56.46 54.6 47.8 20.93" style="fill:none;stroke:#000;stroke-linecap:square;stroke-miterlimit:10;stroke-width:2.31982px"/><line x1="28.98" y1="10.37" x2="28.98" y2="71.72" style="fill:none;stroke:#000;stroke-linecap:square;stroke-miterlimit:10;stroke-width:2.31982px"/><line x1="16.56" y1="72.75" x2="41.39" y2="72.75" style="fill:none;stroke:#000;stroke-linecap:square;stroke-miterlimit:10;stroke-width:2.31982px"/><path d="M1.59,54.84a8.8,8.8,0,0,0,17.13,0Z" style="fill:none;stroke:#000;stroke-linecap:round;stroke-linejoin:round;stroke-width:2.31982px"/><path d="M39.24,54.84a8.8,8.8,0,0,0,17.13,0Z" style="fill:none;stroke:#000;stroke-linecap:round;stroke-linejoin:round;stroke-width:2.31982px"/><path d="M25.42,40.28A3.57,3.57,0,1,1,29,43.84,3.57,3.57,0,0,1,25.42,40.28Z" style="fill:#fff;stroke:#000;stroke-miterlimit:10;stroke-width:2.31982px"/></g></g></svg>