<svg xmlns="http://www.w3.org/2000/svg" viewBox="0 0 56.36 58.18"><title>Asset 3icons</title><g id="Layer_2" data-name="Layer 2"><g id="Layer_1-2" data-name="Layer 1"><polygon points="10.37 25.98 12.71 36.56 2.37 33.3 10.37 25.98"/><path d="M55.2,18.48a14.27,14.27,0,0,0-27-6.4,14.27,14.27,0,1,0-24,15.16L9,32.05" style="fill:none;stroke:#030202;stroke-miterlimit:10;stroke-width:2.31982px"/><path d="M28.18,25.12,17.08,36.56s-3.9,5,0,8.88l9.61,9.74s4.14,4.14,8.28,0l18.38-18.5" style="fill:none;stroke:#000;stroke-miterlimit:10;stroke-width:2.31982px"/><line x1="43" y1="19.15" x2="26.81" y2="35.83" style="fill:none;stroke:#000;stroke-miterlimit:10;stroke-width:2.31982px"/><line x1="49.95" y1="21.47" x2="33.76" y2="38.15" style="fill:none;stroke:#030202;stroke-miterlimit:10;stroke-width:2.31982px"/><line x1="52.38" y1="28.66" x2="38.95" y2="42.49" style="fill:none;stroke:#030202;stroke-miterlimit:10;stroke-width:2.31982px"/><path d="M42.1,4.73A3.57,3.57,0,1,1,45.67,8.3,3.57,3.57,0,0,1,42.1,4.73Z" style="fill:#fff;stroke:#000;stroke-miterlimit:10;stroke-width:2.31982px"/></g></g></svg>