<svg xmlns="http://www.w3.org/2000/svg" viewBox="0 0 39.54 78.26"><title>Asset 5icons</title><g id="Layer_2" data-name="Layer 2"><g id="Layer_1-2" data-name="Layer 1"><polygon points="33.87 64.53 27.29 73.15 23.12 63.14 33.87 64.53"/><polygon points="2.06 40.3 38.38 40.3 38.38 46.71 9.83 46.71 2.06 46.71 2.06 40.3" style="fill:none;stroke:#000;stroke-miterlimit:10;stroke-width:2.31982px"/><polyline points="20.22 77.1 13.37 77.1 9.83 46.71" style="fill:none;stroke:#000;stroke-miterlimit:10;stroke-width:2.31982px"/><line x1="28.5" y1="65.03" x2="30.63" y2="46.71" style="fill:none;stroke:#000;stroke-miterlimit:10;stroke-width:2.31982px"/><line x1="20.24" y1="77.1" x2="27.09" y2="77.1" style="fill:none;stroke:#000;stroke-miterlimit:10;stroke-width:2.31982px"/><path d="M15.94,2.49,6.56,19.79S.17,33.44,11.25,39.85H28.92s11.82-5.74,6.11-16c-4-7.1-8.68-14.6-8.68-14.6l-4.19,5.44Z" style="fill:none;stroke:#000;stroke-miterlimit:10;stroke-width:2.31982px"/><path d="M1.16,25.27a3.57,3.57,0,1,1,3.57,3.57A3.57,3.57,0,0,1,1.16,25.27Z" style="fill:#fff;stroke:#000;stroke-miterlimit:10;stroke-width:2.31982px"/></g></g></svg>